<?xml version="1.0" encoding="utf-8"?>
<!-- Generator: Adobe Illustrator 27.5.0, SVG Export Plug-In . SVG Version: 6.00 Build 0)  -->
<svg version="1.1" xmlns="http://www.w3.org/2000/svg" xmlns:xlink="http://www.w3.org/1999/xlink" x="0px" y="0px"
	 viewBox="0 0 500 500" style="enable-background:new 0 0 500 500;" xml:space="preserve">
<g id="Background_Simple">
	<g>
		<path style="fill:#92E3A9;" d="M486.049,379.396c0,0,20.197-33.145-13.827-104.801S407.61,202.91,365.862,160.479
			s-61.689-91.992-125.506-94.321c-63.816-2.329-115.933,20.96-124.442,68.703c-8.509,47.743-1.57,45.444-57.156,66.389
			C3.172,222.195,8.49,288.569,18.063,316.516c9.572,27.947,6.382,41.92,0,60.551c-6.382,18.631,9.572,33.769,24.463,48.907
			c14.891,15.138,62.753,32.605,114.869,26.782c52.117-5.822,83.132-39.085,110.615-34.934
			c27.483,4.152,81.898,39.591,127.633,32.605S479.668,428.303,486.049,379.396z"/>
		<path style="opacity:0.7;fill:#FFFFFF;" d="M486.049,379.396c0,0,20.197-33.145-13.827-104.801S407.61,202.91,365.862,160.479
			s-61.689-91.992-125.506-94.321c-63.816-2.329-115.933,20.96-124.442,68.703c-8.509,47.743-1.57,45.444-57.156,66.389
			C3.172,222.195,8.49,288.569,18.063,316.516c9.572,27.947,6.382,41.92,0,60.551c-6.382,18.631,9.572,33.769,24.463,48.907
			c14.891,15.138,62.753,32.605,114.869,26.782c52.117-5.822,83.132-39.085,110.615-34.934
			c27.483,4.152,81.898,39.591,127.633,32.605S479.668,428.303,486.049,379.396z"/>
	</g>
</g>
<g id="Tree">
	<path style="fill:#263238;" d="M482.924,42.036v8.988l-4.993,21.97l-6.99-29.958l-0.999,10.985c0,0,0,4.993,0,10.985
		c0,5.992-2.996,28.96-2.996,28.96V76.988l-6.99-24.965v7.989v4.993l1.997,30.957l-7.989-35.95l-0.999,5.992c0,0,0,24.965,0,28.96
		c0,3.994-7.989,25.964-7.989,25.964l1.997-20.971l-8.988-33.953c0,0,0,19.972,0,22.968c0,2.996-5.992,27.961-5.992,27.961
		s-1.997-9.986-1.997-16.976C429.997,92.965,428,68,428,68s-2.996,24.965-5.992,32.954c-2.996,7.989-14.979,28.96-14.979,28.96
		s3.995-13.981,5.992-19.972c1.997-5.992,0.999-31.956,0.999-31.956s-6.99,9.986-7.989,19.972s-16.976,35.95-16.976,35.95
		s5.992-15.978,5.992-20.971c0-4.993,4.993-31.956,4.993-31.956s-14.979,23.967-15.978,29.958
		c-0.999,5.992-22.968,21.969-22.968,21.969s12.982-19.972,16.977-26.963c3.994-6.99,6.99-14.979,6.99-14.979
		s-13.98,16.976-23.967,26.963c-9.986,9.986-37.947,17.975-37.947,17.975l52.926-42.94c0,0-12.4,8.024-23.315,14.814
		c-7.146,4.446-13.655,8.363-15.631,9.153c-4.993,1.997-37.947,23.967-37.947,23.967s25.964-23.967,36.949-32.954
		c10.985-8.988,39.944-21.97,39.944-21.97s-29.958,13.981-40.943,14.979c-10.985,0.999-30.957,14.979-30.957,14.979
		s15.978-17.975,29.958-20.971c13.981-2.996,51.928-19.972,51.928-19.972l-22.968,0.999l-17.975,5.992l-3.895,1.298l-26.064,8.688
		c0,0,45.936-23.967,55.922-25.964c9.986-1.997,40.943-0.999,40.943-0.999l-31.956-6.99l-46.935,8.988
		c0,0,37.947-13.981,42.94-14.979c4.993-0.999,37.947-0.999,37.947-0.999l-14.979-0.999l-53.925-4.993
		c0,0,54.924-5.992,63.911-4.993c8.987,0.999,37.947,9.986,37.947,9.986s-13.98-8.988-28.96-11.983
		c-14.979-2.996-28.96-9.986-28.96-9.986s25.964,3.994,42.94,5.992c16.976,1.997,20.971,8.987,20.971,8.987l-13.981-16.976
		l-9.986-4.993c0,0,23.967,12.982,26.963,14.979c2.996,1.997,6.99,4.993,6.99,4.993s-5.992-6.99-8.988-10.985
		c-2.996-3.994-10.985-10.985-10.985-10.985s19.972,14.979,22.968,14.979c2.996,0,3.994,2.996,3.994,2.996l-9.986-15.978
		l16.976,7.989L482.924,42.036z"/>
	<path style="fill:#263238;" d="M482.347,60.696l4.192,6.505l6.632,18.23L474.14,67.007l4.4,8.416c0,0,2.329,3.614,5.123,7.951
		c2.794,4.337,11.338,22.358,11.338,22.358l-7.917-12.287l-16.702-14.809l3.726,5.782l2.329,3.614l15.883,21.475L469.77,87.212
		l2.072,4.802c0,0,11.643,18.069,13.506,20.96c1.863,2.891,6.327,22.518,6.327,22.518l-8.335-16.11L461,99
		c0,0,9.314,14.455,10.712,16.624c1.397,2.168,8.704,23.032,8.704,23.032s-6.103-6.296-9.363-11.356
		c-3.26-5.059-16.349-22.197-16.349-22.197s9.475,19.466,11.032,26.646c1.557,7.179,2.664,27.946,2.664,27.946
		s-3.629-11.982-4.978-17.25c-1.349-5.268-14.18-23.594-14.18-23.594s-0.402,10.488,3.532,18.181
		c3.934,7.693,4.479,33.937,4.479,33.937s-3.115-14.359-5.443-17.973c-2.329-3.614-11.289-25.457-11.289-25.457
		s0.336,24.332,2.407,29.135c2.072,4.802-6.378,26.613-6.378,26.613s0.082-20.51-0.287-27.432
		c-0.369-6.922-1.926-14.102-1.926-14.102s-2.202,18.807-4.772,30.692c-2.57,11.885-19.082,30.707-19.082,30.707l18.281-55.763
		c0,0-5.233,11.59-9.966,21.595c-3.099,6.55-5.983,12.421-7.045,13.915c-2.682,3.774-16.288,35.044-16.288,35.044
		s7.615-29.455,11.374-41.083c3.759-11.628,18.665-34.53,18.665-34.53s-15.163,24.09-22.648,29.936
		c-7.485,5.846-15.42,25.279-15.42,25.279s3.181-20.461,11.903-29.15c8.722-8.688,28.27-38.673,28.27-38.673l-16.158,11.434
		l-10.216,12.72l-2.213,2.756l-14.813,18.443c0,0,22.07-38.77,28.367-44.873c6.296-6.103,29.168-19.817,29.168-19.817l-26.389,9.844
		l-29.779,28.394c0,0,20.945-27.816,24.093-30.868c3.148-3.051,27-18.42,27-18.42l-11.307,6.263l-41.358,21.535
		c0,0,36.958-29.951,43.929-33.42c6.971-3.469,32.123-10.47,32.123-10.47s-14.31,0.015-26.549,4.833
		c-12.239,4.818-25.618,6.278-25.618,6.278s20.655-9.218,33.874-15.689c13.219-6.472,19.37-3.275,19.37-3.275l-18.036-5.767
		l-9.556,1.043c0,0,23.401-1.781,26.501-1.733c3.1,0.048,7.388,0.354,7.388,0.354s-7.597-2.265-11.628-3.759
		c-4.031-1.494-13.074-2.828-13.074-2.828s21.441,1.527,23.61,0.13c2.168-1.397,4.288,0.305,4.288,0.305l-14.679-6.907l16.013-2.135
		L482.347,60.696z"/>
</g>
<g id="Clouds">
	<g>
		<path style="fill:none;stroke:#263238;stroke-linecap:round;stroke-linejoin:round;stroke-miterlimit:10;" d="M185.543,261.137
			c-1.085,1.129-2.016,2.326-2.826,3.57"/>
		<path style="fill:none;stroke:#263238;stroke-linecap:round;stroke-linejoin:round;stroke-miterlimit:10;" d="M217.987,341.704
			h97.242c0,0,3.313-9.941-8.836-16.568c-12.149-6.626-17.671-1.104-22.09-6.626c-4.418-5.523,12.149-19.882-20.986-34.24
			c0,0-2.208-30.925-47.493-32.03c-13.599-0.332-22.019,2.325-27.472,6.415"/>
		
			<line style="fill:none;stroke:#263238;stroke-linecap:round;stroke-linejoin:round;stroke-miterlimit:10;" x1="188.313" y1="341.704" x2="204.499" y2="341.704"/>
		
			<line style="fill:none;stroke:#263238;stroke-linecap:round;stroke-linejoin:round;stroke-miterlimit:10;" x1="79.662" y1="341.704" x2="159.988" y2="341.704"/>
		<path style="fill:none;stroke:#263238;stroke-linecap:round;stroke-linejoin:round;stroke-miterlimit:10;" d="M176.822,279.96
			c-1.385,4.709-2.882,8.774-6.281,10.937c-12.15,7.732-15.463-4.417-27.613,3.314c-12.149,7.731-6.627,23.194-16.567,25.403
			c-9.941,2.209-23.195-9.94-35.344-2.209c-12.149,7.731-12.149,14.358-17.672,14.358c-5.522,0-16.568-4.418-23.194,0
			c-6.627,4.419-14.358,9.941-14.358,9.941h39.123"/>
	</g>
	<g>
		<path style="fill:none;stroke:#263238;stroke-linecap:round;stroke-linejoin:round;stroke-miterlimit:10;" d="M181.456,98.661
			c-1.412-1.465-3.863-2.813-8.112-2.917c-9.553-0.233-6.99,6.524-9.553,8.155c-2.563,1.631-3.262-0.932-5.825,0.699
			c-2.563,1.631-1.398,4.893-3.495,5.359c-2.097,0.466-4.893-2.097-7.456-0.466c-2.563,1.631-2.563,3.029-3.728,3.029
			c-1.165,0-3.495-0.932-4.893,0c-1.398,0.932-3.029,2.097-3.029,2.097h25.017"/>
		<path style="fill:none;stroke:#263238;stroke-linecap:round;stroke-linejoin:round;stroke-miterlimit:10;" d="M184.087,102.833
			c-0.228-0.11-0.469-0.221-0.724-0.332c0,0-0.08-1.125-0.858-2.457"/>
		<path style="fill:none;stroke:#263238;stroke-linecap:round;stroke-linejoin:round;stroke-miterlimit:10;" d="M163.587,114.617
			h30.726c0,0,0.699-2.097-1.864-3.495c-2.563-1.398-3.728-0.233-4.66-1.398c-0.83-1.037,1.851-3.553-2.488-6.23"/>
	</g>
	<g>
		<path style="fill:none;stroke:#263238;stroke-linecap:round;stroke-linejoin:round;stroke-miterlimit:10;" d="M98.172,116.836
			c-1.412-1.465-3.863-2.813-8.112-2.917c-9.553-0.233-6.99,6.524-9.553,8.155c-2.563,1.631-3.262-0.932-5.825,0.699
			c-2.563,1.631-1.398,4.893-3.495,5.359c-2.097,0.466-4.893-2.097-7.456-0.466c-2.563,1.631-2.563,3.029-3.728,3.029
			c-1.165,0-3.495-0.932-4.893,0c-1.398,0.932-3.029,2.097-3.029,2.097H77.1"/>
		<path style="fill:none;stroke:#263238;stroke-linecap:round;stroke-linejoin:round;stroke-miterlimit:10;" d="M100.803,121.007
			c-0.228-0.11-0.469-0.221-0.724-0.331c0,0-0.08-1.125-0.858-2.457"/>
		<path style="fill:none;stroke:#263238;stroke-linecap:round;stroke-linejoin:round;stroke-miterlimit:10;" d="M80.304,132.791
			h30.726c0,0,0.699-2.097-1.864-3.495c-2.563-1.398-3.728-0.233-4.66-1.398c-0.83-1.037,1.851-3.553-2.488-6.23"/>
	</g>
	<g>
		<path style="fill:none;stroke:#263238;stroke-linecap:round;stroke-linejoin:round;stroke-miterlimit:10;" d="M313.938,114.617
			h60.922c0,0,2.076-6.228-5.536-10.38c-7.612-4.151-11.071-0.692-13.839-4.151c-2.768-3.46,7.612-12.456-13.147-21.451
			c0,0-1.383-19.375-29.754-20.067c-12.243-0.299-17.785,3.269-20.742,7.811"/>
		
			<line style="fill:none;stroke:#263238;stroke-linecap:round;stroke-linejoin:round;stroke-miterlimit:10;" x1="295.347" y1="114.617" x2="305.487" y2="114.617"/>
		<path style="fill:none;stroke:#263238;stroke-linecap:round;stroke-linejoin:round;stroke-miterlimit:10;" d="M288.148,75.935
			c-0.868,2.95-1.806,5.497-3.935,6.852c-7.612,4.844-9.687-2.768-17.299,2.076c-7.612,4.844-4.152,14.531-10.379,15.915
			c-6.228,1.384-14.531-6.228-22.143-1.384c-7.611,4.843-7.611,8.995-11.071,8.995c-3.46,0-10.38-2.768-14.531,0
			c-4.152,2.768-8.995,6.228-8.995,6.228h77.808"/>
	</g>
</g>
<g id="Floor">
	<g>
		<path style="fill:none;stroke:#263238;stroke-linecap:round;stroke-linejoin:round;stroke-miterlimit:10;" d="M454.571,436.311
			c3.346,0.137,5.307,0.254,7.269,0.254c4.667,0,10.667,0,10.667,0"/>
		<path style="fill:none;stroke:#263238;stroke-linecap:round;stroke-linejoin:round;stroke-miterlimit:10;" d="M131.839,437.928
			c17.459,0.122,33.078,0.55,44.667-0.03c13.333-0.667,52.667-6.667,80-6.667c27.333,0,68.667,0,102.667,4s46.667,0.667,70,0.667
			c7.506,0,13.08,0.069,17.344,0.163"/>
		<path style="fill:none;stroke:#263238;stroke-linecap:round;stroke-linejoin:round;stroke-miterlimit:10;" d="M37.839,439.232
			c0,0,26-0.667,45.333-0.667c19.333,0,20-0.667,40.667-0.667"/>
		<path style="fill:none;stroke:#263238;stroke-linecap:round;stroke-linejoin:round;stroke-miterlimit:10;" d="M273.906,449.482
			c4.485,0.278,7.266,0.417,7.266,0.417"/>
		<path style="fill:none;stroke:#263238;stroke-linecap:round;stroke-linejoin:round;stroke-miterlimit:10;" d="M118.506,449.899
			c0,0,6,0,37.333-1.333s56-5.333,77.333-2.667c11.469,1.434,24.48,2.482,34.059,3.145"/>
		<path style="fill:none;stroke:#263238;stroke-linecap:round;stroke-linejoin:round;stroke-miterlimit:10;" d="M384.506,442.565
			c0,0-13.333,1.333-44-0.667c-30.667-2-36.667,0.667-40.667,0.667s-10,0-10,0"/>
		<path style="fill:none;stroke:#263238;stroke-linecap:round;stroke-linejoin:round;stroke-miterlimit:10;" d="M361.176,451.482
			c-5.406,0.071-11.345,0.357-16.67,1.083c-14.667,2-25.333,4-31.333,4.667"/>
		<path style="fill:none;stroke:#263238;stroke-linecap:round;stroke-linejoin:round;stroke-miterlimit:10;" d="M378.506,451.899
			c0,0-3.496-0.241-8.642-0.364"/>
		<path style="fill:none;stroke:#263238;stroke-linecap:round;stroke-linejoin:round;stroke-miterlimit:10;" d="M115.181,457.617
			c5.171,0.148,8.659,0.282,8.659,0.282"/>
		<path style="fill:none;stroke:#263238;stroke-linecap:round;stroke-linejoin:round;stroke-miterlimit:10;" d="M65.839,459.232
			c0,0,11.333-2,26-2c5.071,0,10.461,0.08,15.344,0.184"/>
	</g>
</g>
<g id="Character">
	<g>
		<path style="fill:#FFFFFF;stroke:#263238;stroke-linecap:round;stroke-linejoin:round;stroke-miterlimit:10;" d="M347.194,262.061
			c0,0-15.551-13.996-21.254-12.182c-5.702,1.814-9.072,23.845-9.072,35.768c0,11.923-2.073,30.843-2.073,30.843l21.513-12.182
			c0,0,11.145-2.592,18.661-15.551C362.486,275.798,347.194,262.061,347.194,262.061z"/>
		<g>
			<path style="fill:#FFFFFF;stroke:#263238;stroke-linecap:round;stroke-linejoin:round;stroke-miterlimit:10;" d="
				M129.854,378.059c0,0-23.586,12.441-27.992,12.7s-17.106-1.555-21.513-4.665c-4.406-3.11-7.517-6.48-9.849-5.702
				c-2.333,0.778-3.369,3.369-2.592,4.665c0.777,1.296,1.732,1.766,1.732,1.766s-3.794,0.738-3.056,4.004
				c0.46,2.038,0.287,2.783,0.287,2.783s-1.296,3.629-0.518,4.925c0.778,1.296,2.074,3.629,2.074,3.629s0.518,2.592,5.184,5.184
				c0,0,2.073,1.296,5.184,3.888c3.11,2.592,16.588,11.923,20.476,12.441c3.888,0.518,8.035-2.592,10.368-4.925
				c2.333-2.333,4.924-12.959,7.776-16.588c2.851-3.629,21.913-27.356,23.468-30.466
				C142.436,368.587,129.854,378.059,129.854,378.059z"/>
			<path style="fill:none;stroke:#263238;stroke-linecap:round;stroke-linejoin:round;stroke-miterlimit:10;" d="M70.24,385.835
				c0,0-2.851,9.072-2.073,13.478"/>
		</g>
		<g>
			<g>
				<path style="fill:#263238;stroke:#263238;stroke-linecap:round;stroke-linejoin:round;stroke-miterlimit:10;" d="
					M334.212,417.36c-2.485,0-4.5-2.015-4.5-4.5V312.526c0-2.485,2.015-4.5,4.5-4.5c2.485,0,4.5,2.015,4.5,4.5V412.86
					C338.712,415.345,336.697,417.36,334.212,417.36z"/>
			</g>
			<path style="fill:#FFFFFF;stroke:#263238;stroke-linecap:round;stroke-linejoin:round;stroke-miterlimit:10;" d="
				M256.506,392.899c0,0,23.961-7.402,37-11.5c13.039-4.098,32.699-14.056,42.758-20.762c10.059-6.706,17.882-11.176,21.98-19.745
				c4.098-8.569,7.451-17.137,7.451-24.961c0-7.824,0-7.824,0-7.824L236.42,388.578L256.506,392.899z"/>
			<g>
				<path style="fill:#263238;stroke:#263238;stroke-linecap:round;stroke-linejoin:round;stroke-miterlimit:10;" d="M155.805,437.4
					c-1.852,0-3.66-0.935-4.697-2.631c-1.585-2.591-0.77-5.977,1.822-7.562l232.667-142.333c2.591-1.585,5.977-0.771,7.562,1.821
					c1.586,2.591,0.77,5.977-1.821,7.562L158.67,436.59C157.775,437.138,156.783,437.4,155.805,437.4z"/>
			</g>
		</g>
		<g>
			<g>
				<path style="fill:#FFFFFF;stroke:#263238;stroke-linecap:round;stroke-linejoin:round;stroke-miterlimit:10;" d="
					M185.979,333.597c0,0-12.959-4.924-16.588-3.629c-3.629,1.296-9.072,11.664-9.59,12.959
					c-0.518,1.296-25.023,24.764-29.429,32.54c-4.406,7.776-19.958,27.733-19.958,27.733s-3.369,12.7-5.443,14.774
					c-2.073,2.074-6.739,1.555-9.59-0.259c-2.851-1.814-6.998-4.665-11.145-6.739c-4.147-2.074-10.627-3.629-10.627-3.629
					s0.259,3.629,1.037,7.257c0.778,3.629,1.296,6.22,5.184,9.331c3.888,3.11,8.035,6.998,12.441,9.331
					c4.406,2.333,8.812,6.48,13.996,3.629c5.184-2.851,9.331-10.886,10.627-11.923c1.296-1.037,7.517-12.182,13.478-15.81
					c5.961-3.629,23.209-17.507,30.207-24.764c6.998-7.257,14.255-23.327,14.255-23.327l10.108,5.702c0,0,9.59-9.331,9.59-18.402
					S185.979,333.597,185.979,333.597z"/>
				<path style="fill:#263238;stroke:#263238;stroke-linecap:round;stroke-linejoin:round;stroke-miterlimit:10;" d="
					M104.971,417.974c-2.074,2.074-6.739,1.555-9.59-0.259s-6.998-4.665-11.145-6.739c-1.073-0.536-2.301-1.037-3.533-1.486
					c0.989,2.09,2.29,4.912,3.592,7.952c2.184,5.097,6.178,12.519,10.309,17.178c3.65,2.223,7.392,4.623,11.663,2.274
					c1.977-1.087,3.8-2.928,5.375-4.847c0.793-3.885,0.956-9.713,0.956-16.669c0-9.434,3.833-19.163,3.833-19.163l-0.937,0.357
					c-2.928,3.867-5.08,6.629-5.08,6.629S107.045,415.901,104.971,417.974z"/>
				<path style="fill:#263238;stroke:#263238;stroke-linecap:round;stroke-linejoin:round;stroke-miterlimit:10;" d="
					M186.008,357.004l-4.422,1.474l-4.422-0.295l-7.665-6.191c0,0,2.064,5.012,0.295,11.793
					c-1.769,6.781-10.319,20.343-10.319,20.343l-6.386,7.267c2.96-2.593,5.601-5.037,7.49-6.997
					c6.998-7.257,14.255-23.327,14.255-23.327l10.108,5.702c0,0,1.945-1.9,4.082-4.807
					C187.672,359.606,186.008,357.004,186.008,357.004z"/>
			</g>
			<path style="fill:#263238;stroke:#263238;stroke-linecap:round;stroke-linejoin:round;stroke-miterlimit:10;" d="M246.37,347.593
				c0,0-25.919-7.516-36.805-10.627c-10.886-3.11-22.549-5.702-24.623-4.665c-2.074,1.037-5.184,27.733-4.665,30.325
				c0.518,2.592,1.814,4.925,1.814,4.925s24.623,10.367,33.954,13.737c9.331,3.369,22.29,10.108,26.437,10.108
				c4.147,0,8.553-2.851,10.108-4.406c1.555-1.555,0.518-20.476,0.518-27.215c0-6.739-1.296-11.404-1.296-11.404L246.37,347.593z"/>
			<g>
				<path style="fill:#92E3A9;stroke:#263238;stroke-linecap:round;stroke-linejoin:round;stroke-miterlimit:10;" d="
					M332.68,301.976c0,0-9.59,3.369-23.327,12.7c-13.737,9.331-23.327,19.439-28.511,23.327c-5.184,3.888-24.882,8.035-27.474,8.035
					c-2.592,0-6.998,0-6.998,0s-3.11,5.443-3.37,18.921c-0.259,13.478,4.406,25.919,4.406,25.919s12.182-5.184,30.584-9.331
					c18.402-4.147,46.135-17.107,60.391-27.474c14.255-10.367,18.143-14.774,21.513-21.513c3.37-6.739,5.443-10.367,4.406-18.143
					c-1.037-7.776-12.7-13.478-20.217-13.996C336.568,299.902,332.68,301.976,332.68,301.976z"/>
				<path style="fill:none;stroke:#263238;stroke-linecap:round;stroke-linejoin:round;stroke-miterlimit:10;" d="M290.115,367.563
					c4.136,0.734,5.937,0.534,5.937,0.534"/>
				<path style="fill:none;stroke:#263238;stroke-linecap:round;stroke-linejoin:round;stroke-miterlimit:10;" d="M253.359,348.351
					c0,0-1.868,5.603,16.81,13.075c7.228,2.891,12.737,4.543,16.776,5.483"/>
				<path style="fill:none;stroke:#263238;stroke-linecap:round;stroke-linejoin:round;stroke-miterlimit:10;" d="M265.891,351.005
					c3.624,1.625,9.965,3.483,20.022,3.483"/>
				<path style="fill:none;stroke:#263238;stroke-linecap:round;stroke-linejoin:round;stroke-miterlimit:10;" d="M261.898,348.618
					c0,0,0.383,0.367,1.238,0.917"/>
				<path style="fill:none;stroke:#263238;stroke-linecap:round;stroke-linejoin:round;stroke-miterlimit:10;" d="M299.829,333.041
					c-1.826-0.756-2.71-1.234-2.71-1.234"/>
				<path style="fill:none;stroke:#263238;stroke-linecap:round;stroke-linejoin:round;stroke-miterlimit:10;" d="M347.55,338.211
					c0,0,3.202,5.337-18.678,2.135c-12.493-1.828-21.072-4.353-26.133-6.182"/>
			</g>
			<path style="fill:#FFFFFF;stroke:#263238;stroke-linecap:round;stroke-linejoin:round;stroke-miterlimit:10;" d="
				M345.639,258.432c0,0-9.331,2.592-9.849,5.702s-2.074,4.925-3.11,5.443c-1.037,0.518-6.48-1.037-7.776,0.518
				c-1.296,1.555-0.518,6.48-0.518,6.48s-3.11,5.184-4.665,9.849c-1.555,4.665,0,5.443,1.814,6.221
				c1.814,0.778,5.961,3.11,5.961,3.11l1.296,9.59c0,0-6.998,6.739-5.702,7.516c1.296,0.778,24.104-10.627,24.104-10.627
				s12.7-2.851,16.07-4.925c3.369-2.073,12.959-15.551,10.108-23.586c-2.851-8.035-13.737-12.959-18.402-13.737
				C350.305,259.21,345.639,258.432,345.639,258.432z"/>
			<path style="fill:#263238;" d="M351.775,289.832c0,0-12.957,4.424-17.698,4.424c-4.099,0-12.21-2.125-14.331-2.701
				c0.458,0.502,1.104,0.796,1.789,1.089c1.814,0.778,5.961,3.11,5.961,3.11l0.133,0.981l16.631,6.95
				c0.511-0.251,0.97-0.477,1.365-0.672L351.775,289.832z"/>
			<path style="fill:none;stroke:#263238;stroke-linecap:round;stroke-linejoin:round;stroke-miterlimit:10;" d="M341.751,268.541
				l-2.333,2.592c0,0,1.555,2.073,3.369,2.073"/>
			<path style="fill:none;stroke:#263238;stroke-linecap:round;stroke-linejoin:round;stroke-miterlimit:10;" d="M340.974,264.912
				c0,0,3.888-2.592,7.516,3.369"/>
			<path style="fill:none;stroke:#263238;stroke-linecap:round;stroke-linejoin:round;stroke-miterlimit:10;" d="M326.459,279.945
				c0,0,3.11,3.11,8.035,2.074"/>
		</g>
		<path style="fill:#263238;" d="M368.448,260.506c0,0-5.702-5.961-11.404-8.294c-5.702-2.333-11.663-3.629-11.404-1.814
			c0.259,1.814,4.406,4.406,4.406,4.406s-10.627-1.296-9.849,2.074c0.778,3.37,25.4,10.627,25.4,10.627s-11.145,2.074-10.886,4.406
			c0.259,2.333,1.296,2.333,1.296,3.888c0,1.555-5.184,7.516-4.147,8.553c1.037,1.037,5.184-4.406,6.22-4.406
			c1.037,0,5.443-0.518,5.443,5.443c0,5.961-3.888,8.035-5.443,8.294c-1.555,0.259-5.443,2.074-5.443,2.074
			s6.739,2.592,10.368,2.592c3.629,0,12.959-2.592,16.588-9.59s-0.259-20.994-3.629-24.623
			C372.595,260.506,368.448,260.506,368.448,260.506z"/>
		<g>
			<path style="fill:#92E3A9;stroke:#263238;stroke-linecap:round;stroke-linejoin:round;stroke-miterlimit:10;" d="
				M340.974,314.935c0,0,2.851-11.145,5.961-20.476c3.11-9.331,9.849-25.66,13.478-33.694c3.629-8.035,10.886-9.849,13.219-9.59
				s6.22,8.812,5.961,14.515c-0.259,5.702-4.406,13.737-4.925,16.329c-0.518,2.592-8.553,25.919-8.553,31.103
				c0,5.184-5.184,14.514-9.072,17.625"/>
			<path style="fill:#FFFFFF;stroke:#263238;stroke-linecap:round;stroke-linejoin:round;stroke-miterlimit:10;" d="M379.593,265.69
				c0.259-5.702-3.629-14.255-5.961-14.515c-2.333-0.259-9.59,1.555-13.219,9.59c-3.629,8.035-10.368,24.364-13.478,33.694
				c-0.752,2.257-1.489,4.619-2.174,6.904c1.802,4.683,5.783,14.406,8.135,15.386c2.156,0.898,8.542-0.696,13.21-3.485
				c0.001-0.047,0.008-0.098,0.008-0.144c0-5.184,8.035-28.511,8.553-31.103C375.187,279.427,379.334,271.392,379.593,265.69z"/>
		</g>
		<g>
			<g>
				<path style="fill:#263238;stroke:#263238;stroke-linecap:round;stroke-linejoin:round;stroke-miterlimit:10;" d="
					M178.533,379.162c-1.153-1.163-1.691-2.881-1.272-4.588c0.641-2.608,3.275-4.204,5.884-3.563l217.619,56.829
					c2.609,0.641,4.205,3.274,3.564,5.884c-0.64,2.609-3.275,4.204-5.884,3.563l-217.619-56.829
					C179.923,380.236,179.141,379.777,178.533,379.162z"/>
			</g>
			<g>
				<path style="fill:#FFFFFF;stroke:#263238;stroke-linecap:round;stroke-linejoin:round;stroke-miterlimit:10;" d="M162.511,437.4
					c-1.852,0-3.66-0.935-4.697-2.631c-1.585-2.591-0.77-5.977,1.822-7.562l232.667-142.333c2.591-1.585,5.977-0.771,7.562,1.821
					c1.586,2.591,0.77,5.977-1.821,7.562L165.376,436.59C164.48,437.138,163.489,437.4,162.511,437.4z"/>
			</g>
			<g>
				<path style="fill:#FFFFFF;stroke:#263238;stroke-linecap:round;stroke-linejoin:round;stroke-miterlimit:10;" d="
					M179.604,376.905c-1.153-1.163-1.691-2.881-1.272-4.588c0.641-2.609,3.275-4.204,5.884-3.563l222.61,58.699
					c2.609,0.641,4.205,3.274,3.564,5.884c-0.64,2.609-3.275,4.204-5.883,3.564L181.896,378.2
					C180.995,377.979,180.213,377.519,179.604,376.905z"/>
			</g>
			
				<circle style="fill:#263238;stroke:#263238;stroke-linecap:round;stroke-linejoin:round;stroke-miterlimit:10;" cx="234.506" cy="387.399" r="2"/>
			
				<circle style="fill:#263238;stroke:#263238;stroke-linecap:round;stroke-linejoin:round;stroke-miterlimit:10;" cx="403.506" cy="431.899" r="2"/>
			
				<circle style="fill:#263238;stroke:#263238;stroke-linecap:round;stroke-linejoin:round;stroke-miterlimit:10;" cx="186.506" cy="374.899" r="2"/>
			
				<circle style="fill:#263238;stroke:#263238;stroke-linecap:round;stroke-linejoin:round;stroke-miterlimit:10;" cx="177.506" cy="422.399" r="2"/>
			
				<circle style="fill:#263238;stroke:#263238;stroke-linecap:round;stroke-linejoin:round;stroke-miterlimit:10;" cx="386.006" cy="294.899" r="2"/>
			<g>
				<g>
					<path style="fill:#FFFFFF;stroke:#263238;stroke-linecap:round;stroke-linejoin:round;stroke-miterlimit:10;" d="
						M346.506,424.066c-2.485,0-4.5-2.015-4.5-4.5V319.232c0-2.485,2.015-4.5,4.5-4.5c2.485,0,4.5,2.015,4.5,4.5v100.334
						C351.006,422.051,348.991,424.066,346.506,424.066z"/>
				</g>
				
					<circle style="fill:#263238;stroke:#263238;stroke-linecap:round;stroke-linejoin:round;stroke-miterlimit:10;" cx="346.506" cy="417.899" r="2"/>
				
					<circle style="fill:#263238;stroke:#263238;stroke-linecap:round;stroke-linejoin:round;stroke-miterlimit:10;" cx="346.506" cy="320.399" r="2"/>
			</g>
		</g>
	</g>
</g>
<g id="Device">
	<g>
		<g>
			<polygon style="fill:#D4D4D4;stroke:#263238;stroke-linecap:round;stroke-linejoin:round;stroke-miterlimit:10;" points="
				236.506,345.232 272.506,343.232 247.173,336.899 210.173,338.232 			"/>
			<polygon style="fill:#A8A8A8;stroke:#263238;stroke-linecap:round;stroke-linejoin:round;stroke-miterlimit:10;" points="
				236.506,345.232 210.173,338.232 210.173,303.565 236.506,306.232 			"/>
			<polygon style="fill:#D4D4D4;stroke:#263238;stroke-linecap:round;stroke-linejoin:round;stroke-miterlimit:10;" points="
				239.259,338.771 251.003,342.345 261.98,342.345 248.194,338.516 			"/>
		</g>
		<path style="fill:#263238;stroke:#263238;stroke-linecap:round;stroke-linejoin:round;stroke-miterlimit:10;" d="M236.506,306.232
			l-26.333-2.667v30.378c2.232,0.232,4.96-0.07,6.827-2.277c3.667-4.333,6-13.667,12.667-16c3.5-1.225,5.613-1.987,6.839-2.439
			V306.232z"/>
		
			<ellipse style="fill:#FFFFFF;stroke:#263238;stroke-linecap:round;stroke-linejoin:round;stroke-miterlimit:10;" cx="222.5" cy="323.5" rx="2.167" ry="4.167"/>
	</g>
</g>
<g id="Icon_4">
	<g>
		
			<circle style="fill:#FFFFFF;stroke:#92E3A9;stroke-width:6;stroke-linecap:round;stroke-linejoin:round;stroke-miterlimit:10;" cx="432.835" cy="236.745" r="37.004"/>
		<path style="fill:#263238;" d="M448.813,246.839c-2.257,0-3.336-0.807-3.813-1.796v-13.678c0-4.674-2.919-8.663-7.032-10.252
			c0.052-0.238,0.08-0.484,0.08-0.737c0-1.92-1.556-3.476-3.476-3.476h-0.897c-1.92,0-3.476,1.556-3.476,3.476
			c0,0.225,0.023,0.444,0.064,0.657c-4.223,1.533-7.24,5.58-7.24,10.332v13.678c-0.477,0.989-1.555,1.796-3.813,1.796v3.813h11.225
			c-0.005,0.075-0.011,0.149-0.011,0.224c0,1.982,1.607,3.588,3.589,3.588c1.982,0,3.588-1.606,3.588-3.588
			c0-0.076-0.007-0.15-0.011-0.224h11.225V246.839z"/>
		
			<line style="fill:none;stroke:#92E3A9;stroke-width:6;stroke-linecap:round;stroke-linejoin:round;stroke-miterlimit:10;" x1="402.488" y1="255.565" x2="462.477" y2="214.557"/>
	</g>
</g>
<g id="Icon_3">
	<g>
		
			<ellipse transform="matrix(0.7071 -0.7071 0.7071 0.7071 -32.6812 284.2241)" style="fill:#FFFFFF;stroke:#92E3A9;stroke-width:6;stroke-linecap:round;stroke-linejoin:round;stroke-miterlimit:10;" cx="326.748" cy="181.562" rx="37.004" ry="37.004"/>
		<g>
			<path style="fill:#263238;" d="M342.676,173.311c-0.427,0-0.844,0.036-1.256,0.089c-0.862-7.26-7.028-12.892-14.52-12.892
				c-6.678,0-12.3,4.479-14.055,10.593c-5.471,0.622-9.723,5.261-9.723,10.898c0,6.061,4.913,10.974,10.974,10.974h28.579
				c5.43,0,9.831-4.402,9.831-9.831S348.106,173.311,342.676,173.311z"/>
			<polygon style="fill:#263238;" points="324.178,201.053 320.106,194 316.034,201.053 318.105,201.053 318.105,206.704 
				322.107,206.704 322.107,201.053 			"/>
			<polygon style="fill:#263238;" points="328.927,199.652 332.999,206.704 337.071,199.652 335,199.652 335,194 330.999,194 
				330.999,199.652 			"/>
		</g>
		
			<line style="fill:none;stroke:#92E3A9;stroke-width:6;stroke-linecap:round;stroke-linejoin:round;stroke-miterlimit:10;" x1="295.734" y1="200.382" x2="355.724" y2="159.374"/>
	</g>
</g>
<g id="Icon_2">
	<g>
		
			<ellipse transform="matrix(0.9741 -0.2262 0.2262 0.9741 -39.4863 49.2216)" style="fill:#FFFFFF;stroke:#92E3A9;stroke-width:6;stroke-linecap:round;stroke-linejoin:round;stroke-miterlimit:10;" cx="195.073" cy="196.939" rx="37.004" ry="37.004"/>
		<g>
			<path style="fill:#263238;" d="M195.682,199.47c0-2.76,2.245-5.006,5.005-5.006h5.054V180.12c0-2.868-2.325-5.194-5.193-5.194
				h-27.566c-2.868,0-5.194,2.325-5.194,5.194v15.98c0,2.868,2.325,5.193,5.194,5.193h6.173l5.413,11.186l2.983-11.186h8.131V199.47
				z"/>
			<path style="fill:#263238;" d="M200.688,195.929h18.796c1.956,0,3.541,1.586,3.541,3.541v10.896c0,1.956-1.585,3.541-3.541,3.541
				h-4.209l-3.691,7.627l-2.034-7.627h-8.862c-1.956,0-3.541-1.586-3.541-3.541V199.47
				C197.147,197.514,198.732,195.929,200.688,195.929z"/>
			
				<line style="fill:none;stroke:#92E3A9;stroke-width:3;stroke-linecap:round;stroke-linejoin:round;stroke-miterlimit:10;" x1="175.38" y1="182.196" x2="198.152" y2="182.196"/>
			
				<line style="fill:none;stroke:#92E3A9;stroke-width:3;stroke-linecap:round;stroke-linejoin:round;stroke-miterlimit:10;" x1="175.38" y1="187.789" x2="198.152" y2="187.789"/>
			
				<line style="fill:none;stroke:#92E3A9;stroke-width:3;stroke-linecap:round;stroke-linejoin:round;stroke-miterlimit:10;" x1="175.38" y1="193.382" x2="198.152" y2="193.382"/>
		</g>
		
			<line style="fill:none;stroke:#92E3A9;stroke-width:6;stroke-linecap:round;stroke-linejoin:round;stroke-miterlimit:10;" x1="163.997" y1="215.76" x2="223.986" y2="174.751"/>
	</g>
</g>
<g id="Icon_1">
	<g>
		
			<ellipse transform="matrix(0.7071 -0.7071 0.7071 0.7071 -158.6634 142.7475)" style="fill:#FFFFFF;stroke:#92E3A9;stroke-width:6;stroke-linecap:round;stroke-linejoin:round;stroke-miterlimit:10;" cx="92.98" cy="262.897" rx="37.004" ry="37.004"/>
		<g>
			<path style="fill:#263238;" d="M93.029,248.689c-5.53,0.04-10.894,1.368-15.767,4.324c-1.992,1.208-3.803,2.722-5.648,4.16
				c-1.068,0.832-2.169,1.246-3.506,0.846c-1.97-0.59-2.916-2.974-1.814-4.716c0.371-0.586,0.875-1.111,1.399-1.573
				c6.131-5.413,13.242-8.654,21.398-9.475c11.186-1.126,20.91,2.284,29.343,9.6c0.846,0.734,1.598,1.536,1.685,2.757
				c0.1,1.398-0.432,2.473-1.626,3.171c-1.211,0.708-2.439,0.556-3.563-0.213c-0.662-0.453-1.238-1.03-1.86-1.543
				c-5.577-4.602-11.973-7.049-19.204-7.301C93.641,248.718,93.414,248.706,93.029,248.689z"/>
			<path style="fill:#263238;" d="M109.513,266.534c-1.028,0.02-1.848-0.427-2.576-1.102c-2.929-2.72-6.32-4.632-10.269-5.278
				c-6.098-0.998-11.661,0.326-16.48,4.334c-0.562,0.467-1.103,0.964-1.693,1.391c-1.424,1.03-3.313,0.812-4.442-0.478
				c-1.105-1.263-1.095-3.139,0.104-4.4c2.67-2.807,5.883-4.81,9.502-6.141c7.017-2.58,13.938-2.255,20.722,0.857
				c2.772,1.271,5.244,3.002,7.399,5.166c1.012,1.016,1.268,2.449,0.702,3.697C111.906,265.852,110.9,266.491,109.513,266.534z"/>
			<path style="fill:#263238;" d="M92.906,264.247c4.514,0.095,8.382,1.691,11.497,5.016c1.231,1.314,1.294,3.269,0.137,4.519
				c-1.238,1.337-3.15,1.42-4.634,0.293c-1.175-0.893-2.326-1.93-3.662-2.473c-3.48-1.415-6.666-0.625-9.439,1.862
				c-0.986,0.885-1.993,1.586-3.439,1.334c-2.427-0.423-3.555-3.255-2.02-5.182c1.494-1.876,3.404-3.191,5.607-4.105
				C88.858,264.721,90.831,264.263,92.906,264.247z"/>
			<path style="fill:#263238;" d="M93.052,283.751c-2.309-0.011-4.044-1.725-4.037-3.989c0.006-2.137,1.839-3.98,3.945-3.967
				c2.319,0.014,4.054,1.78,4.027,4.099C96.961,282.014,95.179,283.761,93.052,283.751z"/>
		</g>
		
			<line style="fill:none;stroke:#92E3A9;stroke-width:6;stroke-linecap:round;stroke-linejoin:round;stroke-miterlimit:10;" x1="61.904" y1="281.718" x2="121.894" y2="240.709"/>
	</g>
</g>
</svg>
